<?xml version="1.0" encoding="UTF-8" standalone="no"?><!DOCTYPE svg PUBLIC "-//W3C//DTD SVG 1.1//EN" "http://www.w3.org/Graphics/SVG/1.1/DTD/svg11.dtd"><svg width="100%" height="100%" viewBox="0 0 32 32" version="1.1" xmlns="http://www.w3.org/2000/svg" xmlns:xlink="http://www.w3.org/1999/xlink" xml:space="preserve" xmlns:serif="http://www.serif.com/" style="fill-rule:evenodd;clip-rule:evenodd;stroke-linejoin:round;stroke-miterlimit:2;"><rect id="Artboard1" x="0" y="0" width="32" height="32" style="fill:none;"/><g id="Artboard11" serif:id="Artboard1"><path d="M12.774,5.817c-0.844,0.266 -1.516,0.666 -2.016,1.2c-0.5,0.533 -0.695,1.222 -0.584,2.066c0.245,0.2 0.589,0.406 1.034,0.617c0.444,0.211 0.833,0.372 1.166,0.483c0.089,0.356 0.089,0.7 0,1.034c-0.088,0.333 -0.233,0.627 -0.433,0.883c-0.2,0.256 -0.433,0.467 -0.7,0.633c-0.267,0.167 -0.511,0.261 -0.733,0.284c-0.778,-0.067 -1.456,-0.356 -2.034,-0.867c-0.577,-0.511 -0.866,-1.244 -0.866,-2.2c-0,-0.556 0.094,-1.111 0.283,-1.667c0.189,-0.555 0.472,-1.072 0.85,-1.55c0.378,-0.477 0.856,-0.9 1.433,-1.266c0.578,-0.367 1.267,-0.628 2.067,-0.784l0.533,1.134Zm-6.066,-0c-0.845,0.266 -1.517,0.666 -2.017,1.2c-0.5,0.533 -0.694,1.222 -0.583,2.066c0.244,0.2 0.589,0.406 1.033,0.617c0.445,0.211 0.833,0.372 1.167,0.483c0.089,0.356 0.089,0.7 -0,1.034c-0.089,0.333 -0.234,0.627 -0.434,0.883c-0.2,0.256 -0.433,0.467 -0.7,0.633c-0.266,0.167 -0.511,0.261 -0.733,0.284c-0.778,-0.067 -1.455,-0.356 -2.033,-0.867c-0.578,-0.511 -0.867,-1.244 -0.867,-2.2c0,-0.556 0.095,-1.111 0.283,-1.667c0.189,-0.555 0.473,-1.072 0.85,-1.55c0.378,-0.477 0.856,-0.9 1.434,-1.266c0.578,-0.367 1.266,-0.628 2.066,-0.784l0.534,1.134Z" style="fill-rule:nonzero;"/><path d="M25.179,16.2c0.866,-0.267 1.583,-0.722 2.15,-1.367c0.566,-0.644 0.794,-1.389 0.683,-2.233c-0.244,-0.2 -0.589,-0.4 -1.033,-0.6c-0.445,-0.2 -0.834,-0.367 -1.167,-0.5c-0.111,-0.356 -0.117,-0.7 -0.017,-1.033c0.1,-0.334 0.25,-0.628 0.45,-0.884c0.2,-0.255 0.428,-0.466 0.684,-0.633c0.255,-0.167 0.505,-0.25 0.75,-0.25c0.733,0.067 1.4,0.35 2,0.85c0.6,0.5 0.9,1.239 0.9,2.217c-0,0.533 -0.111,1.089 -0.334,1.666c-0.222,0.578 -0.544,1.123 -0.966,1.634c-0.422,0.511 -0.934,0.966 -1.534,1.366c-0.6,0.4 -1.266,0.7 -2,0.9l-0.566,-1.133Zm-6.067,-0c0.867,-0.267 1.583,-0.722 2.15,-1.367c0.567,-0.644 0.795,-1.389 0.683,-2.233c-0.244,-0.2 -0.588,-0.4 -1.033,-0.6c-0.444,-0.2 -0.833,-0.367 -1.167,-0.5c-0.111,-0.356 -0.116,-0.7 -0.016,-1.033c0.1,-0.334 0.25,-0.628 0.45,-0.884c0.2,-0.255 0.428,-0.466 0.683,-0.633c0.256,-0.167 0.506,-0.25 0.75,-0.25c0.733,0.067 1.4,0.35 2,0.85c0.6,0.5 0.9,1.239 0.9,2.217c0,0.533 -0.111,1.089 -0.333,1.666c-0.222,0.578 -0.545,1.123 -0.967,1.634c-0.422,0.511 -0.933,0.966 -1.533,1.366c-0.6,0.4 -1.267,0.7 -2,0.9l-0.567,-1.133Z" style="fill-rule:nonzero;"/><path d="M7.423,25.25c-0.348,-0 -0.644,-0.122 -0.887,-0.365c-0.244,-0.244 -0.366,-0.554 -0.366,-0.929c0,-0.404 0.122,-0.728 0.366,-0.971c0.243,-0.244 0.539,-0.365 0.887,-0.365c0.334,-0 0.623,0.121 0.866,0.365c0.244,0.243 0.365,0.567 0.365,0.971c0,0.375 -0.121,0.685 -0.365,0.929c-0.243,0.243 -0.532,0.365 -0.866,0.365Zm6.993,-0c-0.348,-0 -0.644,-0.122 -0.887,-0.365c-0.244,-0.244 -0.366,-0.554 -0.366,-0.929c0,-0.404 0.122,-0.728 0.366,-0.971c0.243,-0.244 0.539,-0.365 0.887,-0.365c0.334,-0 0.623,0.121 0.866,0.365c0.244,0.243 0.366,0.567 0.366,0.971c-0,0.375 -0.122,0.685 -0.366,0.929c-0.243,0.243 -0.532,0.365 -0.866,0.365Zm6.993,-0c-0.348,-0 -0.644,-0.122 -0.887,-0.365c-0.244,-0.244 -0.365,-0.554 -0.365,-0.929c-0,-0.404 0.121,-0.728 0.365,-0.971c0.243,-0.244 0.539,-0.365 0.887,-0.365c0.334,-0 0.623,0.121 0.866,0.365c0.244,0.243 0.366,0.567 0.366,0.971c-0,0.375 -0.122,0.685 -0.366,0.929c-0.243,0.243 -0.532,0.365 -0.866,0.365Z" style="fill-rule:nonzero;"/></g></svg>