<?xml version="1.0" encoding="UTF-8" standalone="no"?><!DOCTYPE svg PUBLIC "-//W3C//DTD SVG 1.1//EN" "http://www.w3.org/Graphics/SVG/1.1/DTD/svg11.dtd"><svg width="100%" height="100%" viewBox="0 0 32 32" version="1.1" xmlns="http://www.w3.org/2000/svg" xmlns:xlink="http://www.w3.org/1999/xlink" xml:space="preserve" xmlns:serif="http://www.serif.com/" style="fill-rule:evenodd;clip-rule:evenodd;stroke-linejoin:round;stroke-miterlimit:2;"><rect id="Artboard1" x="0" y="0" width="32" height="32" style="fill:none;"/><g id="Artboard11" serif:id="Artboard1"><path d="M15.129,25.766l2.946,-0.424c0.304,1.411 0.787,2.401 1.449,2.971c0.661,0.569 1.562,0.854 2.701,0.854c1.107,0 1.972,-0.282 2.596,-0.846c0.624,-0.564 0.936,-1.226 0.936,-1.986c0,-0.553 -0.195,-1.063 -0.586,-1.53c-0.672,-0.813 -2.517,-2.143 -5.534,-3.987c-1.605,-0.988 -2.726,-1.761 -3.361,-2.32c-0.634,-0.558 -1.152,-1.218 -1.554,-1.977c-0.401,-0.76 -0.602,-1.552 -0.602,-2.376c-0,-1.042 0.325,-1.986 0.976,-2.832c0.651,-0.847 1.547,-1.438 2.686,-1.775c-0.77,-0.737 -1.313,-1.418 -1.628,-2.042c-0.314,-0.624 -0.472,-1.289 -0.472,-1.994c0,-1.389 0.543,-2.593 1.628,-3.613c1.085,-1.02 2.523,-1.53 4.313,-1.53c2.029,-0 3.613,0.483 4.753,1.448c1.139,0.966 1.823,2.366 2.051,4.2l-3.044,0.309c-0.228,-1.324 -0.627,-2.246 -1.196,-2.767c-0.57,-0.521 -1.338,-0.781 -2.303,-0.781c-0.999,-0 -1.804,0.268 -2.417,0.805c-0.614,0.537 -0.92,1.131 -0.92,1.782c-0,0.565 0.195,1.086 0.586,1.563c0.608,0.738 2.268,1.931 4.98,3.581c1.704,1.041 2.854,1.806 3.451,2.295c0.77,0.651 1.337,1.323 1.701,2.018c0.363,0.694 0.545,1.448 0.545,2.262c-0,1.226 -0.396,2.273 -1.188,3.141c-0.456,0.5 -1.291,1.004 -2.507,1.514c0.868,0.662 1.517,1.373 1.945,2.132c0.429,0.76 0.643,1.574 0.643,2.442c0,0.955 -0.271,1.858 -0.814,2.71c-0.542,0.851 -1.323,1.503 -2.343,1.953c-1.02,0.45 -2.122,0.675 -3.304,0.675c-2.073,0 -3.717,-0.518 -4.932,-1.554c-1.215,-1.036 -1.942,-2.477 -2.181,-4.321Zm9.521,-5.111c0.803,-0.412 1.403,-0.893 1.799,-1.44c0.396,-0.548 0.594,-1.083 0.594,-1.604c0,-0.618 -0.282,-1.269 -0.846,-1.953c-0.575,-0.683 -1.796,-1.6 -3.662,-2.75c-1.487,-0.912 -2.594,-1.661 -3.321,-2.247c-0.879,0.5 -1.505,0.999 -1.88,1.498c-0.374,0.499 -0.561,1.052 -0.561,1.66c-0,0.684 0.249,1.335 0.749,1.953c0.499,0.619 1.622,1.443 3.369,2.474c1.454,0.857 2.707,1.66 3.759,2.409Z" style="fill-rule:nonzero;"/><path d="M2.804,8.444c-0,0 1.661,2.987 3.193,5.531c0.758,1.261 1.487,2.407 1.902,3.053c-0.379,0.651 -1.035,1.79 -1.721,3.036c-1.399,2.541 -2.928,5.508 -2.928,5.508l0.891,0.547c0,-0 1.952,-2.708 3.583,-5.107c1.242,-1.826 2.285,-3.468 2.285,-3.468l0.347,-0.567l-0.368,-0.553c0,-0 -1.113,-1.652 -2.448,-3.475c-1.754,-2.397 -3.865,-5.084 -3.865,-5.084l-0.871,0.579Z"/></g></svg>