<?xml version="1.0" encoding="UTF-8" standalone="no"?><!DOCTYPE svg PUBLIC "-//W3C//DTD SVG 1.1//EN" "http://www.w3.org/Graphics/SVG/1.1/DTD/svg11.dtd"><svg width="100%" height="100%" viewBox="0 0 32 32" version="1.1" xmlns="http://www.w3.org/2000/svg" xmlns:xlink="http://www.w3.org/1999/xlink" xml:space="preserve" xmlns:serif="http://www.serif.com/" style="fill-rule:evenodd;clip-rule:evenodd;stroke-linejoin:round;stroke-miterlimit:2;"><rect id="Artboard1" x="0" y="0" width="32" height="32" style="fill:none;"/><g id="Artboard11" serif:id="Artboard1"><path d="M26.402,19.342c-0,0 0.27,-4.015 0.404,-7.506c0.102,-2.659 0.114,-5.005 0.114,-5.005l-0,-1.04l-1.041,-0c-0,-0 -2.291,0.03 -4.889,0.134c-3.411,0.136 -7.335,0.384 -7.335,0.384l0,1.045c0,0 3.924,0.248 7.335,0.384c1.526,0.061 2.947,0.097 3.859,0.116c0.014,0.932 0.043,2.402 0.103,3.982c0.134,3.491 0.404,7.506 0.404,7.506l1.046,0Z"/><path d="M6.37,27.08c-0,0 5.054,-4.884 10.079,-9.8c5.024,-4.915 10.018,-9.86 10.018,-9.86l-1.177,-1.177c0,-0 -4.945,4.994 -9.86,10.019c-4.916,5.025 -9.8,10.079 -9.8,10.079l0.74,0.739Z"/></g></svg>