<?xml version="1.0" standalone="no"?>
<!DOCTYPE svg PUBLIC "-//W3C//DTD SVG 20010904//EN"
 "http://www.w3.org/TR/2001/REC-SVG-20010904/DTD/svg10.dtd">
<svg version="1.0" xmlns="http://www.w3.org/2000/svg"
 width="700.000000pt" height="700.000000pt" viewBox="0 0 700.000000 700.000000"
 preserveAspectRatio="xMidYMid meet">
<metadata>
Created by potrace 1.14, written by Peter Selinger 2001-2017
</metadata>
<g transform="translate(0.000000,700.000000) scale(0.100000,-0.100000)"
fill="#000000" stroke="none">
<path d="M1502 4523 l3 -1118 690 0 690 0 3 168 2 167 -495 0 -495 0 0 330 0
330 400 0 400 0 0 170 0 170 -400 0 -400 0 0 280 0 280 475 0 475 0 0 170 0
170 -675 0 -675 0 2 -1117z"/>
<path d="M3720 4886 c-207 -44 -366 -132 -510 -282 -204 -214 -310 -510 -310
-868 0 -567 267 -981 716 -1111 159 -46 378 -50 536 -10 136 35 311 139 417
249 41 42 43 47 30 63 -42 49 -193 229 -196 232 -2 3 -25 -15 -51 -40 -67 -64
-112 -95 -194 -134 -179 -85 -411 -65 -566 49 -186 137 -282 379 -282 712 0
410 173 704 465 790 78 23 230 23 305 1 65 -19 161 -75 228 -133 l48 -42 102
123 c56 68 102 128 102 133 0 14 -90 93 -153 136 -77 51 -186 103 -253 122
-80 23 -344 28 -434 10z"/>
<path d="M3728 2330 c-138 -25 -279 -100 -371 -199 -147 -157 -219 -374 -203
-616 8 -134 28 -212 81 -321 81 -168 224 -293 400 -351 102 -33 281 -38 385
-10 197 53 369 203 450 393 67 154 84 404 41 569 -70 264 -250 456 -486 520
-72 19 -231 27 -297 15z m240 -300 c94 -42 166 -142 197 -272 19 -83 19 -283
0 -366 -50 -212 -206 -330 -386 -293 -70 15 -130 55 -179 119 -127 170 -129
526 -4 709 39 57 108 107 169 122 55 14 148 5 203 -19z"/>
<path d="M5335 2326 c-147 -34 -252 -93 -351 -197 -78 -83 -126 -163 -165
-280 -29 -84 -33 -110 -37 -235 -7 -211 28 -353 121 -497 129 -200 369 -320
607 -304 390 27 649 329 650 759 0 241 -75 433 -226 580 -120 116 -264 176
-439 184 -65 2 -121 -1 -160 -10z m272 -302 c127 -62 203 -230 203 -449 0
-219 -78 -388 -207 -452 -82 -40 -184 -40 -265 0 -130 64 -208 233 -208 452 0
257 99 432 267 475 59 14 151 3 210 -26z"/>
<path d="M1922 2168 l3 -133 302 -5 303 -5 -340 -495 -340 -495 0 -92 0 -93
570 0 570 0 0 135 0 135 -354 2 -353 3 338 495 339 495 0 92 0 93 -520 0 -521
0 3 -132z"/>
</g>
</svg>
